<svg width="70" height="37" viewBox="0 0 70 37" fill="none" xmlns="http://www.w3.org/2000/svg">
<path d="M66.7253 12.839C67.4108 12.8401 67.9594 13.1886 68.2894 13.6033C68.4548 13.8112 68.5836 14.0573 68.6456 14.3197C68.6925 14.5182 68.707 14.7589 68.6386 15.0023L68.6214 24.872L68.6204 24.872C68.65 25.6731 68.4298 26.8323 67.6796 27.8517C66.8962 28.9164 65.5821 29.7641 63.5616 29.9296C61.1528 30.1268 59.686 29.5653 58.8292 28.7145C57.9912 27.8825 57.8781 26.9119 57.8788 26.5626C57.8795 26.1721 58.0476 25.5885 58.3871 25.1241C58.7585 24.6163 59.4274 24.1491 60.3553 24.3667C61.0674 24.5338 61.6081 24.9977 61.894 25.1799C62.2004 25.3751 62.5512 25.5415 63.2597 25.4927C63.5885 25.4701 63.7738 25.3827 63.8831 25.2995C63.9929 25.2159 64.0812 25.0948 64.1465 24.9142C64.2049 24.7528 64.2361 24.5652 64.251 24.3597C61.3645 25.0578 58.3244 22.9858 58.2107 19.3105C58.1876 18.5608 58.3263 17.4145 58.8194 16.339C59.3192 15.2492 60.2141 14.177 61.7157 13.7464C62.7591 13.4472 63.6626 13.4197 64.3519 13.5536C64.4813 13.5788 64.606 13.6128 64.7257 13.651C64.7504 13.6193 64.7744 13.5863 64.8021 13.5554C65.2195 13.0888 65.8712 12.8376 66.7253 12.839Z" fill="white" stroke="black" stroke-width="1.53009"/>
<path d="M46.2787 12.8381C46.1578 13.1379 45.9986 13.3804 45.852 13.5487L41.185 20.2125C42.5473 20.1964 44.1683 20.1836 44.8058 20.2115C45.1236 20.2254 45.4117 20.3018 45.663 20.4318L45.8692 14.8065L45.8714 14.7362L45.8872 14.6665C45.9795 14.2565 46.3116 13.6992 46.9 13.3716C46.7035 13.2441 46.5165 13.0938 46.3503 12.9204C46.3252 12.8943 46.303 12.8654 46.2787 12.8381ZM49.3901 13.6291C49.395 13.6333 49.4002 13.6372 49.4051 13.6415C49.4079 13.6347 49.411 13.6281 49.4139 13.6213C49.4059 13.6238 49.398 13.6267 49.3901 13.6291ZM53.209 22.833L53.1391 22.9756C52.9053 23.4554 52.1671 24.2504 50.9362 24.1246C50.3386 24.0634 49.8901 23.7999 49.5667 23.4899C49.5543 23.5058 49.5442 23.5236 49.5312 23.5392C49.1528 23.9954 48.5617 24.2911 47.7695 24.2892C47.1051 24.2875 46.5781 24.0917 46.2028 23.7564C46.0803 23.9 45.9479 24.0239 45.8159 24.1246C45.413 24.4317 44.9402 24.6163 44.584 24.6768L44.5268 24.687L44.4691 24.6884L37.5643 24.8088L37.5124 24.8104L37.4599 24.8032C37.0489 24.7538 36.2156 24.4852 35.5595 23.7759C35.1159 23.2961 35.0198 22.6862 35.0256 22.2257C35.0314 21.7569 35.1424 21.3194 35.2506 21.0401L35.2826 20.9564L35.3338 20.8824L40.4452 13.4628L36.7779 13.4765L36.7593 13.4767L36.7417 13.4759C35.9163 13.4398 35.1602 12.639 35.0981 11.3181C35.0621 10.5533 35.3511 9.9775 35.7848 9.59935C36.1864 9.24926 36.6615 9.11016 36.9855 9.06633L37.0376 9.05981L37.0894 9.05914L44.1714 9.06671L44.2045 9.06816C44.4623 9.07948 44.8322 9.14832 45.217 9.40274C45.3388 9.48332 45.4555 9.58049 45.5686 9.69279C45.7681 8.98331 46.1997 8.4721 46.7211 8.1391C47.3703 7.72457 48.1197 7.60788 48.6646 7.63171C49.168 7.65374 49.8716 7.7768 50.4576 8.24185C51.0822 8.73767 51.4527 9.52406 51.4339 10.6119C51.4195 11.4398 51.217 12.0858 50.8839 12.5732C50.9962 12.5658 51.1113 12.5675 51.2288 12.5785C51.9191 12.643 52.365 12.8361 52.6784 13.1062C52.8799 13.0087 53.1465 12.8874 53.4646 12.7926C54.2256 12.5658 55.2565 12.4834 56.42 13.0488C58.238 13.9325 58.7865 15.5257 58.8089 16.338L58.8091 16.3771L58.6834 21.9296L58.6816 22.0146L58.6603 22.0977C58.5881 22.3876 58.4188 22.7993 58.1177 23.1502C57.8046 23.5149 57.3012 23.8603 56.6112 23.8302C55.9999 23.8034 55.5033 23.6287 55.1485 23.2912C54.7952 22.955 54.6798 22.5501 54.6441 22.2603C54.6286 22.1337 54.6229 21.8229 54.619 21.487C54.6148 21.1204 54.6129 20.6447 54.6121 20.1319C54.6105 19.151 54.6136 18.0268 54.6175 17.2515C54.6048 17.2267 54.5787 17.1837 54.5277 17.1381C54.4501 17.0686 54.2797 16.9611 53.9273 16.9456C53.5693 16.93 53.4758 17.0268 53.475 17.0275C53.4707 17.0316 53.4682 17.0354 53.4667 17.0379L53.4675 17.0409L53.209 22.833Z" fill="white" stroke="black" stroke-width="1.53009"/>
<path d="M58.9826 19.2671C58.9422 17.9552 59.4773 15.1547 61.9416 14.4479C63.8401 13.9035 65.0715 14.3969 65.1457 14.8165C65.0914 14.3879 65.3369 13.5651 66.7539 13.5675C67.5878 13.5689 68.1208 14.4162 67.9063 14.839L67.8888 24.8681C67.9507 26.18 67.1634 28.8785 63.5196 29.177C58.9647 29.5501 58.6485 27.0105 58.6492 26.5662C58.65 26.1219 59.1012 24.8531 60.1912 25.1089C61.2812 25.3646 61.536 26.3807 63.3322 26.2568C65.1285 26.1329 65.1313 24.4825 65.0052 23.2763C62.373 24.6048 59.0943 22.8854 58.9826 19.2671Z" fill="white"/>
<path d="M25.2089 23.7729L25.2109 23.8579L25.1943 23.9409C25.1756 24.0332 25.1466 24.1377 25.1084 24.2494C25.3604 24.1871 25.6447 24.178 25.96 24.2514C26.6473 24.4114 27.1729 24.8605 27.4395 25.0297C27.7267 25.212 28.0545 25.3669 28.7218 25.3197C29.0295 25.2979 29.1984 25.2165 29.296 25.142C29.3941 25.0671 29.4741 24.9578 29.5343 24.7904C29.5839 24.6526 29.6138 24.4939 29.629 24.3198C27.993 24.7007 26.3124 24.158 25.1894 22.9214L25.2089 23.7729ZM12.4116 15.2313C12.3042 15.536 12.1559 15.7852 12.017 15.9597L7.65062 22.8208C9.01109 22.7452 10.6307 22.6626 11.2689 22.6626C11.5867 22.6626 11.8776 22.7256 12.1342 22.8442L12.0893 17.2156L12.0893 17.1452L12.101 17.0759C12.1748 16.6621 12.4825 16.0902 13.0561 15.7371C12.854 15.6183 12.6605 15.4763 12.4868 15.3104C12.4606 15.2854 12.4371 15.2574 12.4116 15.2313ZM15.5562 15.8865C15.5608 15.8901 15.5654 15.8936 15.5699 15.8972C15.5723 15.8907 15.5752 15.8843 15.5777 15.8777C15.5704 15.8803 15.5635 15.884 15.5562 15.8865ZM19.781 24.9135L19.7175 25.059C19.5055 25.5485 18.8035 26.376 17.568 26.304C16.9684 26.2691 16.5084 26.0252 16.1715 25.7299C16.16 25.746 16.1504 25.7637 16.1383 25.7797C15.7806 26.2519 15.2023 26.5731 14.4107 26.6058C13.747 26.6331 13.2125 26.4605 12.8227 26.1419C12.7067 26.2909 12.58 26.4203 12.4526 26.5267C12.0638 26.8512 11.5997 27.0571 11.2465 27.1331L11.1898 27.1448L11.1322 27.1487L4.23935 27.5716L4.18759 27.5745L4.13485 27.5706C3.72199 27.5392 2.87756 27.3072 2.19044 26.6273C1.72562 26.1673 1.60268 25.5613 1.58788 25.101C1.57285 24.6326 1.6642 24.1915 1.75976 23.9077L1.78808 23.8217L1.83593 23.7456L6.61152 16.1101L2.94828 16.2839L2.92973 16.2849L2.91215 16.2849C2.08592 16.2849 1.29477 15.5179 1.1738 14.201C1.10381 13.4388 1.36696 12.8517 1.7832 12.455C2.16888 12.0875 2.63719 11.927 2.95903 11.8691L3.01079 11.8603L3.06255 11.8574L10.138 11.5556L10.1703 11.5556C10.4283 11.5556 10.8007 11.6082 11.1967 11.8457C11.3221 11.9209 11.4437 12.0126 11.5619 12.1201C11.7295 11.4026 12.1379 10.873 12.644 10.5176C13.274 10.0751 14.0175 9.92581 14.563 9.92581C15.0668 9.92586 15.7745 10.0183 16.3805 10.457C17.0267 10.9251 17.4328 11.6944 17.4625 12.7821C17.4851 13.6099 17.3107 14.264 16.9996 14.7655C17.1117 14.7531 17.2271 14.7498 17.3453 14.7557C18.0375 14.7899 18.4911 14.9636 18.8161 15.2195C19.0132 15.1133 19.2747 14.9806 19.5886 14.8719C20.3387 14.6121 21.3651 14.4847 22.5526 14.9988C23.463 15.3931 24.0748 15.9719 24.4697 16.5544C24.9529 15.5295 25.8059 14.5295 27.2207 14.121C28.22 13.8325 29.0881 13.8046 29.7521 13.9325C29.8682 13.9549 29.9806 13.9842 30.089 14.0174C30.1085 13.9931 30.1273 13.9671 30.1486 13.9432C30.5547 13.488 31.1867 13.2451 32.008 13.245C32.6745 13.245 33.2076 13.5841 33.5286 13.9862C33.6894 14.1877 33.8153 14.4266 33.8763 14.6825C33.922 14.8746 33.9368 15.1088 33.8714 15.3465L33.8714 24.7553L33.8704 24.7553C33.8998 25.526 33.6896 26.6393 32.971 27.6194C32.219 28.6448 30.9576 29.4604 29.0216 29.6223C26.7181 29.8148 25.3068 29.2799 24.4784 28.4602C23.6691 27.6593 23.5575 26.7242 23.5575 26.3851C23.5575 26.1922 23.5996 25.952 23.6835 25.7035C23.5419 25.7404 23.389 25.7621 23.2245 25.7621C22.6123 25.7621 22.1077 25.6084 21.7381 25.2865C21.3703 24.966 21.2378 24.5666 21.1893 24.2787C21.1681 24.1528 21.1486 23.8428 21.1297 23.5073C21.1091 23.1412 21.085 22.666 21.0613 22.1538C21.016 21.1744 20.9699 20.0516 20.9392 19.277C20.9256 19.2529 20.8971 19.2115 20.8435 19.1676C20.7629 19.1016 20.588 19.0006 20.2351 19.0006C19.877 19.0007 19.7886 19.1024 19.7878 19.1032C19.7841 19.1072 19.7814 19.1104 19.78 19.1129L19.781 19.1159L19.781 24.9135Z" fill="white" stroke="black" stroke-width="1.53009"/>
<path d="M30.5245 19.1265C30.5245 17.7261 30.0366 17.376 29.1216 17.376C28.2066 17.376 27.4746 17.8589 27.4746 19.1265C27.4746 20.3942 28.2066 20.7563 28.9386 20.7563C29.6706 20.7563 30.5245 20.527 30.5245 19.1265Z" fill="black" stroke="black" stroke-width="0.65137"/>
<path d="M64.9699 19.1568C64.9699 17.7564 64.4819 17.4062 63.5669 17.4062C62.6519 17.4062 61.9199 17.8892 61.9199 19.1568C61.9199 20.4244 62.6519 20.7866 63.3839 20.7866C64.1159 20.7866 64.9699 20.5572 64.9699 19.1568Z" fill="black" stroke="black" stroke-width="0.65137"/>
<path d="M52.9975 8.15463C52.8458 7.97397 52.8648 7.70725 53.0406 7.55006L60.8486 0.568405C61.1954 0.258349 61.7337 0.296926 62.033 0.653277C62.3301 1.00708 62.2733 1.53353 61.9074 1.81593L53.6096 8.22056C53.4214 8.36583 53.1504 8.33664 52.9975 8.15463Z" fill="black"/>
<path d="M26.2599 12.5741C26.1344 12.7735 25.873 12.8399 25.6675 12.7246L16.5094 7.58793C16.1039 7.36049 15.9723 6.84328 16.2198 6.44995C16.4656 6.05942 16.9876 5.94648 17.3726 6.20051L26.1313 11.979C26.3294 12.1097 26.3863 12.3732 26.2599 12.5741Z" fill="black"/>
<path d="M18.862 29.8264C18.9907 30.0238 18.9449 30.2855 18.7569 30.4273L11.1688 36.1493C10.7133 36.4927 10.0629 36.4108 9.7055 35.9649C9.30508 35.4653 9.44392 34.7314 9.99912 34.4131L18.2536 29.6801C18.4626 29.5603 18.7304 29.6247 18.862 29.8264Z" fill="black"/>
<path d="M47.7035 28.2032C47.8509 28.0187 48.1184 27.9808 48.3114 28.1171L55.2424 33.0083C55.6221 33.2763 55.6973 33.8049 55.4072 34.1677C55.1196 34.5274 54.5884 34.5794 54.2368 34.2823L47.7628 28.812C47.5809 28.6583 47.5547 28.3893 47.7035 28.2032Z" fill="black"/>
<path d="M55.2416 8.88102C55.1817 8.77257 55.2149 8.63712 55.318 8.56867L59.093 6.06281C59.4319 5.83784 59.8942 5.9602 60.0777 6.32344C60.2537 6.67179 60.0973 7.09388 59.7365 7.24397L55.5461 8.98731C55.4325 9.03456 55.3009 8.98863 55.2416 8.88102Z" fill="black"/>
<path d="M22.1336 30.6031C22.2327 30.6762 22.2628 30.8101 22.2044 30.9182L20.3825 34.2929C20.1511 34.7215 19.5753 34.8218 19.2123 34.4967C18.9009 34.218 18.8808 33.74 19.1677 33.4349L21.8013 30.6335C21.8882 30.541 22.0314 30.5279 22.1336 30.6031Z" fill="black"/>
<path d="M46.2807 30.9292C46.3869 30.8627 46.5268 30.886 46.6059 30.9834L48.7928 33.6766C49.0474 33.9902 48.9638 34.4534 48.6157 34.6576C48.278 34.8558 47.8403 34.7214 47.6728 34.3681L46.1896 31.2404C46.1365 31.1284 46.1755 30.9951 46.2807 30.9292Z" fill="black"/>
<path d="M49.5844 5.98196C49.4822 5.9108 49.4519 5.77408 49.5145 5.66659L51.7779 1.7756C51.9832 1.42259 52.4542 1.32741 52.7808 1.57291C53.0942 1.80846 53.1404 2.25817 52.8814 2.55323L49.9063 5.94269C49.8247 6.0356 49.6857 6.05256 49.5844 5.98196Z" fill="black"/>
<mask id="path-15-inside-1_133_58224" fill="white">
<ellipse cx="21.1441" cy="29.2232" rx="0.792526" ry="0.784729"/>
</mask>
<ellipse cx="21.1441" cy="29.2232" rx="0.792526" ry="0.784729" fill="black"/>
<path d="M21.9366 29.2232H20.4065C20.4065 28.7973 20.751 28.4778 21.1441 28.4778V30.0079V31.538C22.4125 31.538 23.4667 30.5159 23.4667 29.2232H21.9366ZM21.1441 30.0079V28.4778C21.5371 28.4778 21.8817 28.7973 21.8817 29.2232H20.3516H18.8215C18.8215 30.5159 19.8756 31.538 21.1441 31.538V30.0079ZM20.3516 29.2232H21.8817C21.8817 29.6491 21.5371 29.9686 21.1441 29.9686V28.4385V26.9084C19.8756 26.9084 18.8215 27.9305 18.8215 29.2232H20.3516ZM21.1441 28.4385V29.9686C20.751 29.9686 20.4065 29.6491 20.4065 29.2232H21.9366H23.4667C23.4667 27.9305 22.4125 26.9084 21.1441 26.9084V28.4385Z" fill="black" mask="url(#path-15-inside-1_133_58224)"/>
</svg>
