<svg width="209" height="113" viewBox="0 0 209 113" fill="none" xmlns="http://www.w3.org/2000/svg">
<path d="M200.693 39.0837C202.778 39.0874 204.437 40.1591 205.432 41.422C205.93 42.0555 206.317 42.8029 206.503 43.5986C206.644 44.2031 206.689 44.9373 206.48 45.6787L206.428 75.7245C206.517 78.1581 205.853 81.6831 203.593 84.786C201.232 88.0288 197.267 90.6179 191.164 91.123C183.894 91.7248 179.462 90.0105 176.874 87.4138C174.348 84.8795 174.009 81.9291 174.011 80.8718C174.013 79.6888 174.519 77.9158 175.542 76.5014C176.659 74.9574 178.687 73.5152 181.51 74.1845C182.664 74.4582 183.57 74.9334 184.32 75.411C184.684 75.6427 185.027 75.8856 185.32 76.0934C185.627 76.311 185.888 76.4942 186.157 76.6671C187.076 77.259 188.124 77.7606 190.247 77.6126C191.229 77.5442 191.78 77.2827 192.105 77.0328C192.432 76.781 192.697 76.4124 192.895 75.8594C193.07 75.3699 193.17 74.8021 193.216 74.1803C184.492 76.2947 175.355 69.9368 175.014 58.7876C174.944 56.508 175.359 53.0219 176.844 49.7497C178.348 46.4362 181.045 43.164 185.583 41.8487C188.733 40.9359 191.463 40.8522 193.549 41.2618C193.929 41.3364 194.297 41.4293 194.649 41.5411C194.719 41.451 194.793 41.3619 194.871 41.2739C196.133 39.8486 198.107 39.0793 200.693 39.0837Z" fill="#FF2684" stroke="black" stroke-width="4.65884"/>
<path d="M139.087 39.1243C138.723 40.0205 138.249 40.7464 137.812 41.2508L123.757 61.5301C127.856 61.4812 132.723 61.4501 134.64 61.5348C135.588 61.5767 136.449 61.7984 137.2 62.1826L137.819 45.0761L137.826 44.8623L137.873 44.6542C138.148 43.4161 139.146 41.7132 140.927 40.7109C140.331 40.3209 139.77 39.8539 139.268 39.3249C139.207 39.2597 139.147 39.1917 139.087 39.1243ZM148.476 41.4931C148.479 41.4958 148.482 41.4986 148.485 41.5014C148.487 41.4969 148.489 41.4924 148.491 41.4879C148.486 41.4894 148.481 41.4916 148.476 41.4931ZM159.984 69.5117L159.777 69.9425C159.077 71.3949 156.847 73.8345 153.11 73.4485C151.318 73.2634 149.968 72.4757 148.993 71.5433C148.963 71.581 148.935 71.6203 148.905 71.6576C147.763 73.0481 145.974 73.9549 143.572 73.9489C141.578 73.9439 139.994 73.356 138.86 72.3498C138.497 72.7758 138.101 73.1403 137.71 73.4417C136.494 74.379 135.064 74.9449 133.983 75.1304L133.807 75.1608L133.63 75.1637L112.824 75.5319L112.663 75.5346L112.502 75.5157C111.253 75.3639 108.736 74.5413 106.755 72.3782C105.417 70.9163 105.128 69.0608 105.146 67.6639C105.163 66.2401 105.498 64.9123 105.824 64.0633L105.921 63.8096L106.075 63.5847L121.482 40.9868L110.452 41.0254L110.397 41.0259L110.341 41.0235C107.819 40.9119 105.552 38.4524 105.366 34.4517C105.258 32.1325 106.124 30.3838 107.433 29.2303C108.647 28.1604 110.085 27.7335 111.069 27.5991L111.227 27.5778L111.387 27.578L132.727 27.5999L132.778 27.6002L132.827 27.6024C133.612 27.6371 134.733 27.8486 135.899 28.6277C136.253 28.8643 136.596 29.1444 136.926 29.4697C137.53 27.3351 138.821 25.7896 140.387 24.779C142.349 23.5129 144.616 23.1565 146.267 23.2294C147.79 23.2967 149.919 23.6747 151.692 25.0966C153.579 26.6103 154.693 29.0031 154.636 32.3068C154.593 34.8244 153.984 36.7913 152.978 38.2756C153.31 38.2551 153.65 38.2586 153.996 38.2913C156.068 38.4868 157.418 39.067 158.366 39.8831C158.971 39.5884 159.769 39.2311 160.716 38.9459C163.017 38.2529 166.136 38.0004 169.653 39.7278C174.973 42.3408 176.684 46.9803 176.847 49.5051L176.858 49.7431L176.859 49.8008L176.858 49.8584L176.478 66.7673L176.473 67.0242L176.412 67.2727C176.195 68.1523 175.685 69.4035 174.777 70.4722C173.835 71.5813 172.312 72.6456 170.213 72.5531C168.361 72.4712 166.853 71.935 165.779 70.9017C164.711 69.8755 164.367 68.6424 164.26 67.7652C164.214 67.3807 164.197 66.4372 164.185 65.4139C164.172 64.2978 164.166 62.8498 164.163 61.2888C164.158 58.3021 164.169 54.8789 164.181 52.5183C164.144 52.4434 164.066 52.3101 163.909 52.1681C163.68 51.9604 163.175 51.6361 162.123 51.5897C161.581 51.5657 161.244 51.632 161.055 51.694C160.874 51.7535 160.806 51.8164 160.789 51.8328C160.774 51.8476 160.766 51.8609 160.762 51.8687L160.763 51.8805L159.984 69.5117Z" fill="#FF2684" stroke="black" stroke-width="4.65884"/>
<path d="M177.364 58.6591C177.242 54.6646 178.855 46.1377 186.28 43.9858C192 42.3281 195.711 43.8304 195.934 45.1081C195.77 43.8029 196.51 41.2976 200.78 41.305C203.292 41.3093 204.899 43.889 204.252 45.1764L204.2 75.7133C204.386 79.7079 202.014 87.9243 191.034 88.8331C177.31 89.9691 176.357 82.2365 176.359 80.8836C176.362 79.5307 177.721 75.6677 181.006 76.4464C184.29 77.2251 185.058 80.3188 190.47 79.9416C195.882 79.5644 195.891 74.5393 195.511 70.8665C187.58 74.9115 177.701 69.6762 177.364 58.6591Z" fill="#FF2684"/>
<path d="M75.6172 72.3829L75.623 72.6398L75.5732 72.8908C75.5175 73.1694 75.4315 73.485 75.3174 73.8224C76.0724 73.6401 76.9239 73.6202 77.8662 73.8419C78.9829 74.1047 79.8584 74.5634 80.5811 75.0216C80.931 75.2435 81.26 75.4755 81.54 75.673C81.834 75.8802 82.0809 76.054 82.335 76.2169C83.1961 76.7693 84.1739 77.2375 86.1719 77.0949C87.0915 77.0292 87.5952 76.7842 87.8848 76.5607C88.1769 76.3351 88.4179 76.002 88.6006 75.4894C88.7497 75.0709 88.8403 74.5892 88.8867 74.0617C83.9734 75.2067 78.94 73.5648 75.5615 69.8458L75.6172 72.3829ZM37.042 46.4171C36.7183 47.3285 36.2765 48.0747 35.8623 48.5978L22.7158 69.4777C26.8088 69.248 31.6694 69.0021 33.5889 69.0021C34.5372 69.0021 35.4073 69.1856 36.1748 69.5363L36.0381 52.4191L36.0361 52.2052L36.0732 51.9953C36.2937 50.7462 37.2158 49.0009 38.9502 47.921C38.3382 47.5576 37.7572 47.1159 37.2324 46.6095C37.1677 46.5471 37.1054 46.4818 37.042 46.4171ZM46.5264 48.3693C46.5296 48.3719 46.5329 48.3745 46.5361 48.3771C46.5378 48.3725 46.5393 48.368 46.541 48.3634C46.5361 48.3652 46.5313 48.3675 46.5264 48.3693ZM59.2598 75.8527L59.0723 76.2921C58.4372 77.774 56.3174 80.3097 52.5664 80.089C50.768 79.9831 49.3844 79.2558 48.3691 78.3673C48.3413 78.4063 48.3151 78.4468 48.2861 78.4855C47.2072 79.925 45.4601 80.9098 43.0596 81.0099C41.0678 81.0929 39.4588 80.5754 38.2822 79.6203C37.9383 80.0619 37.559 80.4435 37.1816 80.7619C36.0078 81.752 34.604 82.3804 33.5322 82.6134L33.3584 82.6515L33.1816 82.6622L12.4121 83.9484L12.251 83.9581L12.0898 83.9464C10.8351 83.8499 8.2837 83.1392 6.20996 81.0656C4.80861 79.6642 4.43797 77.8232 4.39355 76.4269C4.34835 75.0038 4.6246 73.6625 4.91211 72.7999L4.99805 72.5421L5.1416 72.3107L19.5371 49.0548L8.51953 49.5802L8.46387 49.5831L8.4082 49.5831C5.88381 49.583 3.51011 47.226 3.14746 43.2374C2.93726 40.9252 3.72551 39.14 4.98242 37.9298C6.14823 36.8074 7.5661 36.3174 8.54297 36.1398L8.7002 36.1115L8.85938 36.1046L30.1797 35.1847L30.2305 35.1828L30.2803 35.1828C31.0652 35.1828 32.1952 35.3446 33.3945 36.0714C33.7587 36.2922 34.1135 36.5569 34.457 36.8673C34.9668 34.7082 36.1881 33.1072 37.708 32.0285C39.6124 30.6769 41.8615 30.2208 43.5137 30.2208C45.0383 30.2208 47.1816 30.5046 49.0156 31.8468C50.9679 33.2757 52.1861 35.617 52.2754 38.9201C52.3434 41.4371 51.8221 43.4289 50.8828 44.9562C51.2131 44.921 51.5527 44.9095 51.9004 44.9269C53.9788 45.0308 55.353 45.5508 56.3359 46.3244C56.9273 46.0032 57.7093 45.611 58.6426 45.2843C60.911 44.4904 64.0155 44.1005 67.6055 45.671C70.3335 46.8645 72.1724 48.6104 73.3633 50.3703C74.8211 47.269 77.3853 44.237 81.6426 42.9953C84.6588 42.1156 87.2799 42.0301 89.2891 42.421C89.6296 42.4873 89.9613 42.5705 90.2803 42.6681C90.3348 42.5999 90.3911 42.5319 90.4502 42.465C91.6776 41.074 93.5915 40.3293 96.0791 40.3292C98.1057 40.3292 99.7204 41.3687 100.688 42.5929C101.173 43.207 101.55 43.9332 101.732 44.7091C101.87 45.2947 101.917 46.009 101.717 46.7335L101.717 75.3302C101.815 77.6729 101.187 81.0824 99.0078 84.0851C96.7413 87.2088 92.9348 89.6992 87.0859 90.1935C80.1329 90.7811 75.8663 89.1497 73.3643 86.6476C70.9248 84.2078 70.5918 81.363 70.5918 80.3371C70.5918 79.7527 70.7174 79.0238 70.9697 78.2687C70.5504 78.3758 70.099 78.4396 69.6133 78.4396C67.7592 78.4396 66.2296 77.9704 65.1104 76.9855C63.9989 76.0074 63.6003 74.7907 63.4551 73.9191C63.3915 73.537 63.3333 72.5952 63.2764 71.5734C63.2143 70.459 63.1436 69.0126 63.0723 67.4533C62.9358 64.4697 62.7956 61.0493 62.7031 58.6906C62.6628 58.6173 62.579 58.4876 62.416 58.3527C62.1776 58.1553 61.6591 57.8537 60.6064 57.8537C60.0636 57.8537 59.7301 57.9347 59.5439 58.005C59.3656 58.0724 59.3002 58.1384 59.2842 58.1554C59.2696 58.1709 59.2625 58.1846 59.2588 58.1925L59.2598 58.2042L59.2598 75.8527Z" fill="#F9DC4D" stroke="black" stroke-width="4.65884"/>
<path d="M91.6078 58.2368C91.6078 53.9727 90.1374 52.9067 87.3805 52.9067C84.6235 52.9067 82.418 54.3771 82.418 58.2368C82.418 62.0965 84.6235 63.1993 86.8291 63.1993C89.0346 63.1993 91.6078 62.5009 91.6078 58.2368Z" fill="black" stroke="black" stroke-width="1.9833"/>
<path d="M195.395 58.3246C195.395 54.0605 193.925 52.9945 191.168 52.9945C188.411 52.9945 186.205 54.4649 186.205 58.3246C186.205 62.1844 188.411 63.2871 190.616 63.2871C192.822 63.2871 195.395 62.5887 195.395 58.3246Z" fill="black" stroke="black" stroke-width="1.9833"/>
<path d="M159.328 24.8295C158.871 24.2794 158.929 23.4666 159.46 22.9871L182.981 1.73415C184.028 0.788295 185.651 0.904251 186.553 1.98926C187.449 3.06651 187.275 4.67081 186.171 5.53229L161.175 25.0287C160.606 25.4719 159.789 25.3837 159.328 24.8295Z" fill="#F9DC4D"/>
<path d="M78.7684 38.2831C78.3902 38.8903 77.6005 39.0911 76.9782 38.7384L49.3994 23.1071C48.172 22.4114 47.7708 20.8338 48.5166 19.6362C49.2571 18.4472 50.8342 18.1062 51.9997 18.8832L78.376 36.468C78.9756 36.8677 79.1493 37.6714 78.7684 38.2831Z" fill="#FF2684"/>
<path d="M56.4792 90.816C56.8671 91.417 56.7274 92.2152 56.1584 92.6487L33.3104 110.059C31.9317 111.109 29.9657 110.863 28.8886 109.505C27.6825 107.984 28.1071 105.748 29.7865 104.774L54.6411 90.3734C55.2738 90.0068 56.0828 90.2016 56.4792 90.816Z" fill="#FF2684"/>
<path d="M143.378 85.8726C143.823 85.3109 144.63 85.1964 145.213 85.6123L166.089 100.5C167.236 101.318 167.465 102.929 166.591 104.034C165.724 105.129 164.121 105.285 163.059 104.379L143.56 87.7285C143.01 87.2593 142.93 86.4394 143.378 85.8726Z" fill="#F9DC4D"/>
<path d="M166.089 27.036C165.908 26.7057 166.009 26.2925 166.322 26.0829L177.683 18.462C178.71 17.7734 180.107 18.1425 180.66 19.2482C181.191 20.3088 180.714 21.5969 179.621 22.0564L167.009 27.3582C166.665 27.5029 166.267 27.3637 166.089 27.036Z" fill="#F9DC4D"/>
<path d="M66.3339 93.1818C66.6324 93.4041 66.7235 93.8113 66.5481 94.1396L61.0541 104.423C60.3587 105.725 58.6255 106.027 57.5312 105.037C56.593 104.188 56.5305 102.736 57.3923 101.809L65.334 93.2728C65.5953 92.9919 66.0261 92.9527 66.3339 93.1818Z" fill="#FF2684"/>
<path d="M139.091 94.1676C139.411 93.965 139.832 94.035 140.07 94.3303L146.668 102.541C147.432 103.492 147.177 104.9 146.128 105.522C145.11 106.126 143.793 105.721 143.29 104.649L138.815 95.1131C138.656 94.7734 138.774 94.3683 139.091 94.1676Z" fill="#F9DC4D"/>
<path d="M149.054 18.2061C148.746 17.9894 148.654 17.574 148.842 17.2479L155.667 5.3917C156.284 4.32036 157.701 4.03386 158.685 4.78151C159.63 5.49872 159.771 6.86492 158.993 7.76018L150.022 18.0882C149.777 18.3701 149.359 18.421 149.054 18.2061Z" fill="#F9DC4D"/>
<circle cx="63.3503" cy="88.9777" r="2.38936" fill="#FF2684"/>
</svg>
