<svg xmlns="http://www.w3.org/2000/svg" version="1.1" xmlns:xlink="http://www.w3.org/1999/xlink" width="347" height="347"><svg width="347" height="347" viewBox="0 0 347 347" fill="none" xmlns="http://www.w3.org/2000/svg">
<rect width="346.762" height="346.762" rx="54.394" fill="#8037DE"></rect>
<path d="M218.003 292.778C209.474 301.308 195.878 302.011 186.514 294.407L51.8464 185.046C33.7608 170.359 32.3588 143.249 48.833 126.775C65.0227 110.585 91.5716 111.616 106.457 129.013L219.244 260.824C227.237 270.165 226.697 284.085 218.003 292.778Z" fill="#F9DC4D"></path>
<path d="M129.686 55.4594C138.216 46.9299 151.812 46.2268 161.176 53.8309L295.843 163.192C313.929 177.879 315.331 204.989 298.856 221.463C282.667 237.652 256.118 236.622 241.232 219.225L128.445 87.4139C120.452 78.0723 120.993 64.153 129.686 55.4594Z" fill="#FF2684"></path>
</svg><style>@media (prefers-color-scheme: light) { :root { filter: none; } }
@media (prefers-color-scheme: dark) { :root { filter: none; } }
</style></svg>