<svg width="106" height="106" viewBox="0 0 106 106" fill="none" xmlns="http://www.w3.org/2000/svg">
<path fill-rule="evenodd" clip-rule="evenodd" d="M43.1628 4.7283L38.6735 8.02352C37.8826 8.65442 37.0446 9.22406 36.167 9.72749C35.5759 10.0416 34.9565 10.2992 34.3169 10.4966C33.5941 10.7154 32.8448 10.8281 31.3395 11.0602L25.8357 11.9022C21.4923 12.5652 19.3173 12.9034 17.6131 13.9178C16.088 14.8129 14.8215 16.0859 13.9196 17.6108C12.9051 19.3347 12.5735 21.5094 11.9038 25.8323L11.0616 31.3354C10.8295 32.8405 10.7168 33.5963 10.498 34.319C10.299 34.9599 10.0426 35.5743 9.72877 36.1622C9.37069 36.8252 8.92641 37.4418 8.02458 38.6684L4.72892 43.1571C2.12953 46.6976 0.829835 48.4679 0.325871 50.384C-0.108624 52.0962 -0.108624 53.8898 0.325871 55.602C0.823204 57.538 2.12953 59.3149 4.72892 62.829L8.02458 67.3176C8.92641 68.5442 9.37732 69.1608 9.72877 69.8238C10.0382 70.4161 10.2946 71.035 10.498 71.6803C10.7168 72.3964 10.8295 73.1456 11.0616 74.6506L11.9038 80.1537C12.5669 84.4965 12.9051 86.6646 13.9196 88.3752C14.8148 89.9002 16.088 91.1732 17.6131 92.0682C19.3372 93.0827 21.5122 93.4142 25.8357 94.0838L31.3395 94.9259C32.8448 95.1579 33.6007 95.2773 34.3169 95.4961C34.9579 95.6906 35.5746 95.9469 36.167 96.2652C36.8301 96.6166 37.4468 97.0608 38.6735 97.9691L43.1628 101.264C46.7038 103.863 48.4743 105.163 50.3907 105.667C52.1015 106.111 53.8985 106.111 55.6093 105.667C57.5456 105.163 59.3228 103.863 62.8372 101.264L67.3265 97.9691C68.5532 97.0674 69.1699 96.6166 69.833 96.2652C70.4254 95.9469 71.0421 95.6906 71.6831 95.4961C72.4059 95.2773 73.1552 95.1646 74.6605 94.9259L80.1643 94.0838C84.5077 93.4208 86.676 93.0893 88.3869 92.0682C89.912 91.1732 91.1852 89.9002 92.0804 88.3752C93.0949 86.6513 93.4265 84.4766 94.0962 80.1537L94.9384 74.6506C95.1705 73.1456 95.2832 72.3964 95.502 71.6737C95.701 71.0327 95.9574 70.4161 96.2712 69.8238C96.6293 69.1608 97.0736 68.5442 97.9754 67.3176L101.271 62.829C103.87 59.2884 105.17 57.5248 105.674 55.602C106.109 53.8898 106.109 52.0962 105.674 50.384C105.177 48.448 103.87 46.6711 101.271 43.1571L97.9754 38.6684C97.3444 37.8776 96.7747 37.0397 96.2712 36.1622C95.957 35.5712 95.6995 34.9519 95.502 34.3124C95.2387 33.3358 95.0503 32.3406 94.9384 31.3354L94.0962 25.8323C93.4331 21.4895 93.0949 19.3148 92.0804 17.6108C91.1762 16.0913 89.9066 14.8218 88.3869 13.9178C86.6628 12.9034 84.4878 12.5719 80.1643 11.9022L74.6605 11.0602C73.6551 10.9483 72.6598 10.7599 71.6831 10.4966C71.0421 10.3031 70.4223 10.0455 69.833 9.72749C68.9554 9.22406 68.1175 8.65442 67.3265 8.02352L62.8372 4.7283C59.2962 2.12925 57.5257 0.829725 55.6093 0.325828C53.8969 -0.108609 52.1031 -0.108609 50.3907 0.325828C48.4544 0.829725 46.6772 2.12925 43.1628 4.7283ZM78.5065 40.5978C78.8903 40.1297 79.1763 39.5895 79.3477 39.009C79.5191 38.4285 79.5723 37.8196 79.5043 37.2182C79.4363 36.6168 79.2484 36.0351 78.9518 35.5075C78.6551 34.98 78.2557 34.5172 77.7771 34.1466C76.8036 33.3851 75.5712 33.0338 74.3425 33.1676C73.1137 33.3013 71.9858 33.9096 71.1991 34.8627L49.2501 61.7814L37.5131 52.7643C36.5543 51.9841 35.3287 51.6091 34.0974 51.7193C32.8662 51.8296 31.7267 52.4163 30.9218 53.3544C30.5285 53.8144 30.2315 54.3487 30.0483 54.9255C29.865 55.5023 29.7993 56.11 29.8549 56.7126C29.9106 57.3152 30.0865 57.9006 30.3722 58.4341C30.6579 58.9677 31.0477 59.4385 31.5186 59.8188L46.9027 71.8195C47.8742 72.6096 49.1188 72.9834 50.3649 72.8592C51.611 72.735 52.7574 72.1229 53.5537 71.1565L78.4866 40.5249L78.5065 40.5978Z" fill="#FF2684"/>
</svg>
